<svg xmlns="http://www.w3.org/2000/svg" width="14" height="14" viewBox="0 0 14 14" fill="none">
    <g clip-path="url(#clip0_73_12459)">
        <path d="M7.31609 0H8.26764V1.30221C9.9699 1.31703 11.6705 1.2841 13.3695 1.31703C13.4532 1.307 13.5382 1.31626 13.6178 1.34412C13.6975 1.37197 13.7697 1.41768 13.829 1.47773C13.8882 1.53779 13.933 1.6106 13.9598 1.69061C13.9865 1.77062 13.9947 1.85569 13.9835 1.93932C14.0115 5.14628 13.9835 8.35983 14 11.5619C13.9835 11.8911 14.0313 12.2549 13.8452 12.5496C13.6131 12.7143 13.3135 12.6978 13.0419 12.7143H8.26764V13.9934H7.27987C4.85325 13.5473 2.42662 13.1324 0 12.6978V1.3055C2.43815 0.869238 4.87794 0.444497 7.31609 0Z" fill="#2A5699"/>
        <path d="M8.26764 1.79126H13.516V12.2089H8.26764V10.9067H12.4031V10.2482H8.26764V9.44154H12.4031V8.78303H8.26764V7.97635H12.4031V7.31783H8.26764V6.49469H12.4031V5.86087H8.26764V5.03773H12.4031V4.39568H8.26764V3.58077H12.4031V2.93049H8.26764V1.79126ZM3.29257 4.66732C3.59548 4.64921 3.89675 4.63604 4.19967 4.61958C4.41204 5.71929 4.6277 6.81572 4.85818 7.91214C5.03763 6.78115 5.23683 5.65509 5.42945 4.52738C5.74718 4.51586 6.06491 4.49775 6.38264 4.478C6.02211 6.05514 5.70767 7.64709 5.31421 9.21435C5.04915 9.35594 4.65569 9.21435 4.33631 9.23082C4.11571 8.15085 3.87041 7.07912 3.68109 5.99752C3.49506 7.04949 3.25306 8.09159 3.04069 9.13533C2.73448 9.11887 2.42827 9.10076 2.12041 9.07936C1.85701 7.64709 1.54586 6.22306 1.29727 4.7875C1.56891 4.77433 1.84219 4.7628 2.12041 4.75292C2.28504 5.79008 2.47107 6.8223 2.6143 7.86111C2.8349 6.79596 3.06373 5.73246 3.29257 4.66732Z" fill="white"/>
    </g>
    <defs>
        <clipPath id="clip0_73_12459">
            <rect width="14" height="14" fill="white"/>
        </clipPath>
    </defs>
</svg>
