<svg width="16" height="16" viewBox="0 0 16 16" fill="none" xmlns="http://www.w3.org/2000/svg">
<g clip-path="url(#clip0_235_28288)">
<path d="M15.136 2.11206H8.41602V13.8721H15.136C15.376 13.8721 15.552 13.6801 15.552 13.4561V2.54406C15.552 2.30406 15.376 2.11206 15.136 2.11206Z" fill="#4CAF50"/>
<path d="M11.36 4.224H14.304V5.488H11.36V4.224ZM11.36 8.416H14.304V9.68H11.36V8.416ZM11.36 10.512H14.304V11.776H11.36V10.512ZM11.36 6.32H14.304V7.584H11.36V6.32ZM8.41602 4.224H10.512V5.488H8.41602V4.224ZM8.41602 8.416H10.512V9.68H8.41602V8.416ZM8.41602 10.512H10.512V11.776H8.41602V10.512ZM8.41602 6.32H10.512V7.584H8.41602V6.32Z" fill="white"/>
<path d="M9.26424 15.568L0.448242 13.888V2.11201L9.26424 0.432007V15.568Z" fill="#2E7D32"/>
<path d="M5.93593 10.88L4.94393 9.008C4.91193 8.944 4.86393 8.81599 4.83193 8.62399H4.79993C4.78393 8.71999 4.73593 8.848 4.67193 9.024L3.67993 10.88H2.12793L3.96793 8L2.28793 5.12H3.87193L4.70393 6.848C4.76793 6.992 4.83193 7.152 4.87993 7.328H4.89593C4.92793 7.216 4.99193 7.05599 5.07193 6.832L5.96793 5.12H7.40793L5.69593 7.968L7.47193 10.88H5.93593Z" fill="white"/>
</g>
<defs>
<clipPath id="clip0_235_28288">
<rect width="16" height="16" fill="white"/>
</clipPath>
</defs>
</svg>
