<svg xmlns="http://www.w3.org/2000/svg" width="24" height="24" viewBox="0 0 24 24" fill="none">
  <path d="M20.4866 8.58248L13.0515 2.32935C12.7838 2.10416 12.4457 1.97964 12.0959 1.97733C11.7461 1.97502 11.4064 2.09506 11.1357 2.31669L3.52886 8.54591C3.35704 8.68662 3.21862 8.86372 3.12357 9.06444C3.02852 9.26515 2.97923 9.48446 2.97925 9.70654V20.2265C2.97925 20.6238 3.13693 21.005 3.41768 21.2862C3.69842 21.5674 4.07929 21.7258 4.47667 21.7265L8.63026 21.7347C8.72972 21.7347 8.8251 21.6952 8.89543 21.6248C8.96575 21.5545 9.00526 21.4591 9.00526 21.3597V16.521C9.00539 15.7259 9.32135 14.9634 9.88364 14.4012C10.4459 13.8391 11.2085 13.5233 12.0036 13.5233C12.7987 13.5233 13.5612 13.8392 14.1234 14.4013C14.6856 14.9635 15.0015 15.7259 15.0015 16.521V21.3749C15.0015 21.4744 15.041 21.5697 15.1113 21.6401C15.1817 21.7104 15.2771 21.7499 15.3765 21.7499L19.5189 21.7581C19.7161 21.7585 19.9114 21.7199 20.0937 21.6447C20.2761 21.5695 20.4418 21.4591 20.5813 21.3198C20.7209 21.1804 20.8317 21.0149 20.9072 20.8328C20.9828 20.6506 21.0217 20.4553 21.0217 20.2581V9.73044C21.0216 9.51165 20.9737 9.29552 20.8812 9.09722C20.7888 8.89891 20.6541 8.72322 20.4866 8.58248Z" fill="white"/>
</svg>
