<svg xmlns="http://www.w3.org/2000/svg" width="16" height="16" viewBox="0 0 16 16" fill="none">
    <path d="M8.35594 1.16675H9.25766V2.59815C10.9578 2.60769 12.6597 2.58065 14.3581 2.60612C14.7239 2.57112 15.0103 2.85612 14.9736 3.22159C15.0006 6.19269 14.9672 9.16519 14.9892 12.1378C14.9736 12.4591 15.0205 12.8153 14.8366 13.1C14.6044 13.2685 14.3022 13.2463 14.0303 13.2591C12.4398 13.2511 10.8494 13.2542 9.25734 13.2542V14.8449H8.26828C5.84375 14.4027 3.41578 13.9988 0.990312 13.5725C0.98875 9.8619 0.98875 6.15185 0.990312 2.44237C3.44453 2.01769 5.89859 1.58503 8.35594 1.16675Z" fill="#DC2E1B"/>
    <path d="M1.72672 8.61871V6.6748H2.30984C2.53089 6.6748 2.6749 6.68454 2.74188 6.70402C2.845 6.73319 2.9313 6.79663 3.00078 6.89434C3.07026 6.99204 3.10505 7.11824 3.10516 7.27293C3.10516 7.3922 3.0851 7.49246 3.045 7.57371C3.01 7.64888 2.95762 7.71465 2.89219 7.76559C2.83629 7.8091 2.77188 7.8404 2.70313 7.85746C2.61625 7.87611 2.49063 7.88543 2.32625 7.88543H2.09V8.61871H1.72672ZM2.09 7.00355V7.55527H2.28891C2.43214 7.55527 2.52786 7.54512 2.57609 7.5248C2.623 7.50562 2.66272 7.47224 2.68969 7.42934C2.71762 7.38397 2.73189 7.33151 2.73078 7.27824C2.73324 7.21485 2.71271 7.1527 2.67297 7.10324C2.63605 7.05814 2.58435 7.02758 2.52703 7.01699C2.48349 7.00814 2.39635 7.00371 2.26563 7.00371L2.09 7.00355ZM3.40219 6.6748H4.06641C4.21609 6.6748 4.33026 6.6872 4.40891 6.71199C4.51402 6.74537 4.60784 6.80718 4.68 6.89059C4.7587 6.98234 4.81725 7.08961 4.85187 7.20543C4.89115 7.3297 4.91083 7.48288 4.91094 7.66496C4.91094 7.82496 4.8925 7.96283 4.85563 8.07856C4.81063 8.22001 4.74635 8.3346 4.66281 8.42231C4.60031 8.48866 4.51526 8.54038 4.40766 8.57746C4.32734 8.60496 4.2201 8.61866 4.08594 8.61856H3.40219V6.6748ZM3.76562 7.00293V8.29059H4.03687C4.13833 8.29059 4.21161 8.28444 4.25672 8.27215C4.31175 8.2583 4.36225 8.23041 4.40328 8.19121C4.44214 8.15319 4.4738 8.09069 4.49828 8.00371C4.52276 7.91673 4.5351 7.79809 4.53531 7.64777C4.53531 7.49746 4.52297 7.38204 4.49828 7.30152C4.47359 7.221 4.43927 7.1585 4.39531 7.11402C4.34922 7.06795 4.29077 7.03621 4.22703 7.02262C4.1762 7.01022 4.07677 7.00402 3.92875 7.00402L3.76562 7.00293ZM5.22125 8.61871V6.6748H6.45484V7.00293H5.58453V7.46309H6.33578V7.79121H5.58453V8.61871H5.22125Z" fill="white"/>
    <path d="M12.7394 9.3218C12.7244 9.30567 12.708 9.29097 12.6903 9.27789C12.6175 9.22289 12.4692 9.14258 12.1769 9.07305C12.1478 9.06607 12.1178 9.05935 12.0867 9.05289C12.2808 9.19773 12.4461 9.28727 12.582 9.31852C12.6634 9.33883 12.713 9.33102 12.7394 9.3218ZM11.0759 6.3907C11.1139 6.25758 11.1398 6.01867 11.0848 5.9707L11.0839 5.9718C11.0105 6.07336 10.9177 6.49039 10.9484 6.74195C11.0067 6.6382 11.0252 6.56883 11.0759 6.3907ZM11.0855 8.6282C10.91 8.37494 10.7708 8.09841 10.6719 7.80664C10.4558 8.10567 10.2203 8.39023 9.96703 8.65852C10.2325 8.63227 10.6534 8.61727 11.0855 8.6282Z" fill="white"/>
    <path d="M9.20469 3.0752V8.73004C9.35172 8.68801 9.45313 8.66676 9.45313 8.66676C9.54125 8.57488 9.53125 8.58348 9.63703 8.46988C9.97288 8.10677 10.2857 7.723 10.5736 7.32082C10.5708 7.28395 10.4697 5.89707 10.9086 5.71254C10.9662 5.68879 11.03 5.68414 11.0905 5.69926C11.1706 5.71832 11.2467 5.7702 11.2858 5.83129C11.3848 5.98863 11.383 6.21832 11.3014 6.53988C11.172 7.04879 10.9748 7.33223 10.9748 7.33223C10.9748 7.33223 11.0373 7.96004 11.6311 8.65707C11.9038 8.6802 12.1383 8.71473 12.3286 8.76004C12.6558 8.83816 12.8503 8.94629 12.9233 9.09113C12.9645 9.17301 12.9702 9.27394 12.9208 9.39301C12.8714 9.51207 12.8213 9.57113 12.7302 9.60613C12.6539 9.63551 12.5583 9.63738 12.4469 9.6102C12.1138 9.53082 11.672 9.21379 11.3844 8.95848C10.9191 8.92191 10.3544 8.91785 9.705 8.94598C9.51198 9.15337 9.34495 9.31926 9.20391 9.44363V12.7772H14.4531V3.0752H9.20469Z" fill="white"/>
</svg>
