<svg xmlns="http://www.w3.org/2000/svg" width="245" height="18" viewBox="0 0 245 18" fill="none">
  <path d="M5.94643 10.6867H12.0821V12.3868C12.0821 13.2864 11.9469 13.8801 11.6766 14.1679C11.4063 14.4378 10.8207 14.5727 9.91972 14.5727H5.94643C5.04545 14.5727 4.45982 14.4378 4.18953 14.1679C3.91924 13.8801 3.78409 13.2864 3.78409 12.3868V5.58621C3.78409 4.68666 3.91924 4.10195 4.18953 3.83208C4.47784 3.56222 5.06347 3.42729 5.94643 3.42729H9.91972C10.6946 3.42729 11.2171 3.50825 11.4874 3.67017C11.7757 3.83208 11.9739 4.17391 12.0821 4.69565L15.8661 4.34483C15.6679 2.76162 15.1544 1.64618 14.3255 0.998501C13.5146 0.332834 12.2262 0 10.4603 0H5.40584C3.5138 0 2.13531 0.431784 1.27037 1.29535C0.423458 2.14093 0 3.50825 0 5.3973V12.5757C0 14.4828 0.423458 15.8591 1.27037 16.7046C2.13531 17.5682 3.5138 18 5.40584 18H10.4603C12.3524 18 13.7308 17.5772 14.5958 16.7316C15.0643 16.2819 15.3886 15.7511 15.5688 15.1394C15.767 14.5097 15.8661 13.6552 15.8661 12.5757V7.28636H8.64935L5.94643 10.6867Z" fill="url(#paint0_linear_169_10606)"/>
  <path d="M21.9027 3.42729H31.6332V0H18.1186V18H32.363V14.5727H21.9027V10.6867H29.4231L31.6332 7.28636H21.9027V3.42729Z" fill="url(#paint1_linear_169_10606)"/>
  <path d="M38.3995 6.19319V18H34.6154V0H38.3995L46.6975 11.3476V0H50.4816V18H46.6975L38.3995 6.19319Z" fill="url(#paint2_linear_169_10606)"/>
  <path d="M56.5181 3.42729H66.2486V0H52.734V18H66.9784V14.5727H56.5181V10.6867H64.0385L66.2486 7.28636H56.5181V3.42729Z" fill="url(#paint3_linear_169_10606)"/>
  <path d="M70.9926 17.2038C71.8233 17.7346 73.038 18 74.6367 18H79.6911C81.6012 18 82.9797 17.5682 83.8266 16.7046C84.6735 15.8231 85.097 14.6357 85.097 13.1424V12.1439C85.097 10.6147 84.6735 9.42729 83.8266 8.58171C82.9797 7.71814 81.6012 7.28636 79.6911 7.28636H75.2313C74.3844 7.28636 73.8078 7.16042 73.5014 6.90855C73.2131 6.65667 73.069 6.17991 73.069 5.47826V5.23538C73.069 4.53373 73.2131 4.05697 73.5014 3.8051C73.8078 3.55322 74.3844 3.42729 75.2313 3.42729H79.1505C79.9254 3.42729 80.448 3.50825 80.7182 3.67017C80.9826 3.81865 81.1713 4.11844 81.2841 4.56953L83.5826 1.01928L83.5563 0.998501C82.7454 0.332834 81.457 0 79.6911 0H74.6367C72.7266 0 71.3481 0.431784 70.5012 1.29535C69.6543 2.17691 69.2308 3.36432 69.2308 4.85757V5.85607C69.2308 7.36732 69.6543 8.54573 70.5012 9.3913C71.3481 10.2549 72.7266 10.6867 74.6367 10.6867H79.0965C79.9434 10.6867 80.511 10.8126 80.7993 11.0645C81.1057 11.3163 81.2588 11.7931 81.2588 12.4948V12.7646C81.2588 13.4663 81.1057 13.943 80.7993 14.1949C80.511 14.4468 79.9434 14.5727 79.0965 14.5727H75.1773C74.4024 14.5727 73.8708 14.4918 73.5825 14.3298C73.4169 14.2306 73.2818 14.0639 73.177 13.8296L70.9926 17.2038Z" fill="url(#paint4_linear_169_10606)"/>
  <path d="M87.3493 17.8082V0L91.1334 2.44212V17.8082H87.3493Z" fill="url(#paint5_linear_169_10606)"/>
  <path d="M95.1474 17.2038C95.9781 17.7346 97.1928 18 98.7915 18H103.846C105.756 18 107.135 17.5682 107.981 16.7046C108.828 15.8231 109.252 14.6357 109.252 13.1424V12.1439C109.252 10.6147 108.828 9.42729 107.981 8.58171C107.135 7.71814 105.756 7.28636 103.846 7.28636H99.3861C98.5392 7.28636 97.9626 7.16042 97.6563 6.90855C97.368 6.65667 97.2238 6.17991 97.2238 5.47826V5.23538C97.2238 4.53373 97.368 4.05697 97.6563 3.8051C97.9626 3.55322 98.5392 3.42729 99.3861 3.42729H103.305C104.08 3.42729 104.603 3.50825 104.873 3.67017C105.137 3.81865 105.326 4.11844 105.439 4.56953L107.737 1.01928L107.711 0.998501C106.9 0.332834 105.612 0 103.846 0H98.7915C96.8814 0 95.5029 0.431784 94.656 1.29535C93.8091 2.17691 93.3857 3.36432 93.3857 4.85757V5.85607C93.3857 7.36732 93.8091 8.54573 94.656 9.3913C95.5029 10.2549 96.8814 10.6867 98.7915 10.6867H103.251C104.098 10.6867 104.666 10.8126 104.954 11.0645C105.26 11.3163 105.414 11.7931 105.414 12.4948V12.7646C105.414 13.4663 105.26 13.943 104.954 14.1949C104.666 14.4468 104.098 14.5727 103.251 14.5727H99.3321C98.5572 14.5727 98.0257 14.4918 97.7374 14.3298C97.5718 14.2306 97.4366 14.0639 97.3319 13.8296L95.1474 17.2038Z" fill="url(#paint6_linear_169_10606)"/>
  <path d="M131.776 3.42729H122.046V7.28636H131.036L128.835 10.6867H122.046V18H118.261V0H131.776V3.42729Z" fill="url(#paint7_linear_169_10606)"/>
  <path d="M147.193 0.409457C146.454 0.136486 145.553 0 144.489 0H139.434C137.542 0 136.164 0.431784 135.299 1.29535C134.452 2.14093 134.028 3.51724 134.028 5.42429V12.5757C134.028 14.4828 134.452 15.8591 135.299 16.7046C136.164 17.5682 137.542 18 139.434 18H144.489C146.381 18 147.759 17.5682 148.624 16.7046C149.471 15.8591 149.895 14.4828 149.895 12.5757V5.42429C149.895 3.96666 149.647 2.81909 149.152 1.98158L146.111 6.68017V12.4138C146.111 13.2954 145.975 13.8801 145.705 14.1679C145.435 14.4378 144.849 14.5727 143.948 14.5727H139.975C139.092 14.5727 138.506 14.4378 138.218 14.1679C137.948 13.8801 137.813 13.2954 137.813 12.4138V5.58621C137.813 4.68666 137.948 4.10195 138.218 3.83208C138.506 3.56222 139.092 3.42729 139.975 3.42729H143.948C144.449 3.42729 144.852 3.46898 145.158 3.55235L147.193 0.409457Z" fill="url(#paint8_linear_169_10606)"/>
  <path d="M162.607 0C163.136 0 163.624 0.0337 164.073 0.1011L161.919 3.42729H155.931V8.71664H162.067C162.95 8.71664 163.526 8.58171 163.797 8.31184C164.085 8.04198 164.229 7.45727 164.229 6.55772V5.58621C164.229 5.19046 164.201 4.85564 164.145 4.58176L166.444 1.03057C166.55 1.11379 166.649 1.20205 166.743 1.29535C167.59 2.14093 168.013 3.50825 168.013 5.3973V6.74663C168.013 8.45577 167.698 9.72414 167.067 10.5517C166.436 11.3613 165.364 11.8831 163.851 12.1169L168.554 18H164.04L159.499 12.1439H155.931V18H152.147V0H162.607Z" fill="url(#paint9_linear_169_10606)"/>
  <path d="M192.848 0H177.563V3.42729H183.78V18H187.564V3.42729H190.629L192.848 0Z" fill="url(#paint10_linear_169_10606)"/>
  <path d="M198.884 3.42729H208.615V0H195.1V18H209.345V14.5727H198.884V10.6867H206.405L208.615 7.28636H198.884V3.42729Z" fill="url(#paint11_linear_169_10606)"/>
  <path d="M213.359 17.2038C214.189 17.7346 215.404 18 217.003 18H222.057C223.967 18 225.346 17.5682 226.193 16.7046C227.04 15.8231 227.463 14.6357 227.463 13.1424V12.1439C227.463 10.6147 227.04 9.42729 226.193 8.58171C225.346 7.71814 223.967 7.28636 222.057 7.28636H217.598C216.751 7.28636 216.174 7.16042 215.868 6.90855C215.579 6.65667 215.435 6.17991 215.435 5.47826V5.23538C215.435 4.53373 215.579 4.05697 215.868 3.8051C216.174 3.55322 216.751 3.42729 217.598 3.42729H221.517C222.292 3.42729 222.814 3.50825 223.084 3.67017C223.349 3.81865 223.537 4.11844 223.65 4.56953L225.949 1.01928L225.923 0.998501C225.112 0.332834 223.823 0 222.057 0H217.003C215.093 0 213.714 0.431784 212.867 1.29535C212.02 2.17691 211.597 3.36432 211.597 4.85757V5.85607C211.597 7.36732 212.02 8.54573 212.867 9.3913C213.714 10.2549 215.093 10.6867 217.003 10.6867H221.463C222.31 10.6867 222.877 10.8126 223.166 11.0645C223.472 11.3163 223.625 11.7931 223.625 12.4948V12.7646C223.625 13.4663 223.472 13.943 223.166 14.1949C222.877 14.4468 222.31 14.5727 221.463 14.5727H217.543C216.769 14.5727 216.237 14.4918 215.949 14.3298C215.783 14.2306 215.648 14.0639 215.543 13.8296L213.359 17.2038Z" fill="url(#paint12_linear_169_10606)"/>
  <path d="M229.715 0H245L242.781 3.42729H239.716V18H235.932V3.42729H229.715V0Z" fill="url(#paint13_linear_169_10606)"/>
  <defs>
    <linearGradient id="paint0_linear_169_10606" x1="20.0952" y1="9.56686" x2="303.507" y2="20.2253" gradientUnits="userSpaceOnUse">
      <stop stop-color="#D568CF"/>
      <stop offset="1" stop-color="#335FFA"/>
    </linearGradient>
    <linearGradient id="paint1_linear_169_10606" x1="20.0952" y1="9.56686" x2="303.507" y2="20.2253" gradientUnits="userSpaceOnUse">
      <stop stop-color="#D568CF"/>
      <stop offset="1" stop-color="#335FFA"/>
    </linearGradient>
    <linearGradient id="paint2_linear_169_10606" x1="20.0952" y1="9.56686" x2="303.507" y2="20.2253" gradientUnits="userSpaceOnUse">
      <stop stop-color="#D568CF"/>
      <stop offset="1" stop-color="#335FFA"/>
    </linearGradient>
    <linearGradient id="paint3_linear_169_10606" x1="20.0952" y1="9.56686" x2="303.507" y2="20.2253" gradientUnits="userSpaceOnUse">
      <stop stop-color="#D568CF"/>
      <stop offset="1" stop-color="#335FFA"/>
    </linearGradient>
    <linearGradient id="paint4_linear_169_10606" x1="20.0952" y1="9.56686" x2="303.507" y2="20.2253" gradientUnits="userSpaceOnUse">
      <stop stop-color="#D568CF"/>
      <stop offset="1" stop-color="#335FFA"/>
    </linearGradient>
    <linearGradient id="paint5_linear_169_10606" x1="20.0952" y1="9.56686" x2="303.507" y2="20.2253" gradientUnits="userSpaceOnUse">
      <stop stop-color="#D568CF"/>
      <stop offset="1" stop-color="#335FFA"/>
    </linearGradient>
    <linearGradient id="paint6_linear_169_10606" x1="20.0952" y1="9.56686" x2="303.507" y2="20.2253" gradientUnits="userSpaceOnUse">
      <stop stop-color="#D568CF"/>
      <stop offset="1" stop-color="#335FFA"/>
    </linearGradient>
    <linearGradient id="paint7_linear_169_10606" x1="20.0952" y1="9.56686" x2="303.507" y2="20.2253" gradientUnits="userSpaceOnUse">
      <stop stop-color="#D568CF"/>
      <stop offset="1" stop-color="#335FFA"/>
    </linearGradient>
    <linearGradient id="paint8_linear_169_10606" x1="20.0952" y1="9.56686" x2="303.507" y2="20.2253" gradientUnits="userSpaceOnUse">
      <stop stop-color="#D568CF"/>
      <stop offset="1" stop-color="#335FFA"/>
    </linearGradient>
    <linearGradient id="paint9_linear_169_10606" x1="20.0952" y1="9.56686" x2="303.507" y2="20.2253" gradientUnits="userSpaceOnUse">
      <stop stop-color="#D568CF"/>
      <stop offset="1" stop-color="#335FFA"/>
    </linearGradient>
    <linearGradient id="paint10_linear_169_10606" x1="20.0952" y1="9.56686" x2="303.507" y2="20.2253" gradientUnits="userSpaceOnUse">
      <stop stop-color="#D568CF"/>
      <stop offset="1" stop-color="#335FFA"/>
    </linearGradient>
    <linearGradient id="paint11_linear_169_10606" x1="20.0952" y1="9.56686" x2="303.507" y2="20.2253" gradientUnits="userSpaceOnUse">
      <stop stop-color="#D568CF"/>
      <stop offset="1" stop-color="#335FFA"/>
    </linearGradient>
    <linearGradient id="paint12_linear_169_10606" x1="20.0952" y1="9.56686" x2="303.507" y2="20.2253" gradientUnits="userSpaceOnUse">
      <stop stop-color="#D568CF"/>
      <stop offset="1" stop-color="#335FFA"/>
    </linearGradient>
    <linearGradient id="paint13_linear_169_10606" x1="20.0952" y1="9.56686" x2="303.507" y2="20.2253" gradientUnits="userSpaceOnUse">
      <stop stop-color="#D568CF"/>
      <stop offset="1" stop-color="#335FFA"/>
    </linearGradient>
  </defs>
</svg>
