<svg width="20" height="20" viewBox="0 0 20 20" fill="none" xmlns="http://www.w3.org/2000/svg">
<path d="M1.99995 0H17.9999C18.2121 0 18.4156 0.0842855 18.5656 0.234315C18.7157 0.384344 18.7999 0.587827 18.7999 0.8V19.2C18.7999 19.4122 18.7157 19.6157 18.5656 19.7657C18.4156 19.9157 18.2121 20 17.9999 20H1.99995C1.78778 20 1.58429 19.9157 1.43427 19.7657C1.28424 19.6157 1.19995 19.4122 1.19995 19.2V0.8C1.19995 0.587827 1.28424 0.384344 1.43427 0.234315C1.58429 0.0842855 1.78778 0 1.99995 0ZM2.79995 1.6V18.4H17.2V1.6H2.79995ZM7.77275 7.536L6.62795 8.6536L4.08155 6.048L6.62795 3.4416L7.77195 4.56L6.31835 6.048L7.77275 7.536ZM12.5583 7.536L14.012 6.048L12.5583 4.5592L13.7023 3.4408L16.2487 6.0472L13.7023 8.6536L12.5583 7.536ZM8.19995 8.0496L11 3.2L12.3855 4L9.58555 8.8496L8.19995 8.0496ZM5.19995 10.4H14.7999V12H5.19995V10.4ZM5.19995 14.4H14.7999V16H5.19995V14.4Z" fill="#3860FA"/>
</svg>
