<svg width="24" height="24" viewBox="0 0 24 24" fill="none" xmlns="http://www.w3.org/2000/svg">
<path d="M3.76929 2.76929C3.217 2.76929 2.76929 3.217 2.76929 3.76929V20.2308C2.76929 20.7831 3.217 21.2308 3.76929 21.2308H20.2308C20.7831 21.2308 21.2308 20.7831 21.2308 20.2308V3.76929C21.2308 3.217 20.7831 2.76929 20.2308 2.76929H3.76929ZM19.0154 19.0154H4.98467V4.98467H19.0154V19.0154Z" fill="#D068D1"/>
<path d="M7.38464 15.2308C7.38464 15.997 8.0031 16.6154 8.76926 16.6154C9.30464 16.6154 9.75695 16.32 9.99695 15.877H14.0123C14.2431 16.32 14.7046 16.6154 15.24 16.6154C16.0062 16.6154 16.6246 15.997 16.6246 15.2308C16.6246 14.4646 16.0062 13.8462 15.24 13.8462C14.7046 13.8462 14.2523 14.1416 14.0123 14.5846H10.3385L14.8339 10.0893C14.9631 10.1262 15.1016 10.1539 15.24 10.1539C16.0062 10.1539 16.6246 9.53541 16.6246 8.76926C16.6246 8.0031 16.0062 7.38464 15.24 7.38464C14.4739 7.38464 13.8554 8.0031 13.8554 8.76926C13.8554 8.90772 13.8739 9.04618 13.92 9.17541L9.41541 13.6708V9.99695C9.85849 9.76618 10.1539 9.30464 10.1539 8.76926C10.1539 8.0031 9.53541 7.38464 8.76926 7.38464C8.0031 7.38464 7.38464 8.0031 7.38464 8.76926C7.38464 9.30464 7.68003 9.75695 8.12311 9.99695V14.0123C7.68003 14.2431 7.38464 14.6954 7.38464 15.2308Z" fill="#D068D1"/>
</svg>
